<?xml version="1.0" encoding="utf-8"?>
<!-- Generator: Adobe Illustrator 28.1.0, SVG Export Plug-In . SVG Version: 6.00 Build 0)  -->
<svg version="1.1" id="Layer_1" xmlns="http://www.w3.org/2000/svg" xmlns:xlink="http://www.w3.org/1999/xlink" x="0px" y="0px"
	 viewBox="0 0 4027.3 924.77" style="enable-background:new 0 0 4027.3 924.77;" xml:space="preserve">
<style type="text/css">
	.st0{fill:#FFFFFF;}
</style>
<path class="st0" d="M132.61,478.24l137.73-111.81c32.98-26.77,52.07-66.75,52.07-108.97v-10.83c0-38.37-31.42-69.47-70.18-69.47
	H134.86c-10.45-0.04-18.89,8.31-18.89,18.61v274.68C115.98,478.97,125.93,483.63,132.61,478.24z"/>
<path class="st0" d="M760.93,228.33l-207.21,0.04c-18.8,0-34.37,13.91-36.79,31.88c-0.37,2.55-0.25,5.23,0.08,7.79v0.37
	c1.31,9.37,6.8,17.68,14.95,22.59l-30.36,8.52c-35.81,10.02-69.11,27.25-97.91,50.57L123.76,576.62c-4.92,3.97-7.78,9.98-7.78,16.26
	v135.9c0,5.52,4.59,10.06,10.16,10.06h167.64c5.28,0,9.55-4.02,10.12-9.21c4.63-42.14,40.72-74.99,84.52-74.99
	s79.89,32.81,84.52,74.99c0.57,5.19,4.83,9.21,10.12,9.21h39.62c3.93,0,7.54-2.27,9.22-5.76l156.95-328.54
	c13.56-28.39,32.9-53.65,56.82-74.3l20.19-17.44c3.32-2.88,5.25-7.02,5.25-11.4v-63.02C771.09,232.84,766.5,228.33,760.93,228.33z
	 M632.17,306.93c-13.56,0-24.58-10.91-24.58-24.33c0-13.42,11.02-24.33,24.58-24.33c13.56,0,24.58,10.91,24.58,24.33
	C656.75,296.02,645.73,306.93,632.17,306.93z"/>
<path class="st0" d="M1221.17,523.4h0.06c-5.18-1.45-5.56-8.46-0.69-10.67c35.56-16.04,55.27-46.49,55.27-91.71
	c0-79.02-67.14-119.63-149-119.63h-180.2c-6.13,0-11.12,4.99-11.12,11.12v378.4c0,6.13,4.99,11.12,11.12,11.12h88.36
	c6.13,0,11.12-4.99,11.12-11.12V565.46h59.25c38.91,0,54.19,10.74,56.4,44.02l5.5,82.17c0.38,5.81,5.24,10.36,11.12,10.36h88.74
	c6.51,0,11.62-5.56,11.05-12l-8.08-100.87C1267.72,552.51,1252.06,531.86,1221.17,523.4z M1106.54,476.78h-60.38v-86.91h60.38
	c36.7,0,56.4,15.22,56.4,44.02S1143.17,476.78,1106.54,476.78z"/>
<path class="st0" d="M1432.83,402.89h-87.23c-6.13,0-11.12,4.99-11.12,11.12v276.84c0,6.13,4.99,11.12,11.12,11.12h87.23
	c6.13,0,11.12-4.99,11.12-11.12V414C1443.94,407.87,1439.02,402.89,1432.83,402.89z"/>
<path class="st0" d="M1434.53,301.32h-90.64c-6.13,0-11.12,4.99-11.12,11.12v46.04c0,6.13,4.99,11.12,11.12,11.12h90.64
	c6.13,0,11.12-4.99,11.12-11.12v-46.04C1445.65,306.31,1440.72,301.32,1434.53,301.32z"/>
<path class="st0" d="M1818.93,402.89h-87.61c-4.8,0-9.1,3.09-10.55,7.64l-60.13,183.11l-60.13-183.11
	c-1.52-4.55-5.75-7.64-10.55-7.64h-87.1c-7.77,0-13.14,7.77-10.42,15.03l103.4,276.84c1.64,4.36,5.75,7.2,10.42,7.2h108.7
	c4.61,0,8.78-2.84,10.42-7.2l103.96-276.84C1832.07,410.65,1826.7,402.89,1818.93,402.89z"/>
<path class="st0" d="M2012.78,396.13c-99.29,0-164.79,62.09-164.79,156.32s65.44,156.32,164.79,156.32
	c68.91,0,124.3-30.95,147.61-80.91c3.35-7.2-1.33-15.54-9.22-16.04l-86.47-5.81c-4.23-0.32-8.15,1.96-10.36,5.56
	c-8.27,13.64-24.25,22.74-41.56,22.74c-29.88,0-49.08-21.47-50.21-54.76h196.5c5.94,0,10.8-4.67,11.12-10.61v-1.26
	C2174.16,463.27,2107.01,396.13,2012.78,396.13z M1962.5,521.94c2.27-31.58,21.47-51.35,50.21-51.35c25.96,0,46.3,17.5,48.51,51.35
	H1962.5z"/>
<path class="st0" d="M2421.5,402.95v-0.06h-27.29c-37.27,0-60.38,21.98-72.83,63.79l-1.39-52.93c-0.19-6-5.12-10.8-11.12-10.8
	h-84.69c-6.13,0-11.12,4.99-11.12,11.12V690.9c0,6.13,5,11.12,11.12,11.12h87.23c6.13,0,11.11-4.99,11.11-11.12V544.05
	c0-43.46,19.2-63.79,70.55-63.79h28.42c6.13,0,11.12-4.99,11.12-11.12v-55.08C2432.62,407.94,2427.62,402.95,2421.5,402.95z"/>
<path class="st0" d="M2711.03,300.63h-106.49c-6.13,0-11.12,4.99-11.12,11.12v379.29c0,6.13,4.99,11.12,11.12,11.12h109.9
	c118.18,0,184.37-71.81,184.37-200.22C2898.81,373.01,2830.92,300.63,2711.03,300.63z M2711.03,674.99h-89.37V327.72h89.37
	c102.38,0,157.78,61.08,157.78,174.2C2868.81,614.48,2813.36,674.99,2711.03,674.99z"/>
<path class="st0" d="M3074.65,395.62c-79.71,0-130.62,60.51-130.62,156.64s50.91,156.64,130.62,156.64s130.62-60.51,130.62-156.64
	S3154.36,395.62,3074.65,395.62z M3074.65,682.38c-63.35,0-101.82-49.77-101.82-130.05s38.47-130.05,101.82-130.05
	s101.82,49.77,101.82,130.05S3138,682.38,3074.65,682.38z"/>
<path class="st0" d="M3491.46,601.02l-7.14-0.57c-5.18-0.38-9.98,2.84-11.43,7.77c-13.33,45.92-48,74.09-92.28,74.09
	c-62.78,0-101.82-49.77-101.82-130.05s39.03-130.05,101.82-130.05c42.57,0,76.68,25.58,90.45,68.66c1.52,4.86,6.32,7.9,11.37,7.52
	l6.7-0.51c7.01-0.57,11.87-7.39,9.85-14.15c-15.92-53.69-59.12-88.11-118.3-88.11c-84.26,0-130.62,68.4-130.62,156.64
	s46.36,156.64,130.62,156.64c62.09,0,105.04-37.64,120.77-93.86C3503.27,608.35,3498.41,601.59,3491.46,601.02z"/>
<path class="st0" d="M3666.73,543.8c-55.39-14.15-84.26-31.08-85.39-61.08c-1.71-36.19,30-60.51,74.09-60.51
	c41.81,0,75.35,22.17,86.03,58.55c1.58,5.31,6.57,8.78,12.06,8.15l6.13-0.76c6.7-0.82,11.31-7.39,9.47-13.9
	c-13.52-46.99-56.53-78.64-108.57-78.64c-65.06,0-109.14,35.62-108.01,87.67c1.14,46.36,41.31,65.62,105.73,83.69
	c37.9,10.74,92.72,18.7,92.72,59.94c0,38.47-36.76,55.39-84.83,55.39c-48.76,0-85.58-26.15-93.1-62.72c-1.2-5.68-6.19-9.73-12-9.16
	l-6.63,0.63c-6.25,0.63-10.93,6.32-9.92,12.51c8.02,50.02,58.49,85.27,121.65,85.27c64.49,0,113.12-27.73,113.12-81.42
	C3779.29,579.99,3738.55,560.73,3666.73,543.8z"/>
</svg>
