<svg width="200" height="200" viewBox="0 0 200 200" fill="none" xmlns="http://www.w3.org/2000/svg">
<path d="M22.2111 105.036L56.6701 76.7388C64.921 69.9646 69.6972 59.8445 69.6972 49.1598V46.4194C69.6972 36.7098 61.8358 28.8374 52.1398 28.8374H22.7748C20.1612 28.8272 18.0498 30.9415 18.0498 33.5485V103.065C18.0498 105.221 20.5404 106.401 22.2111 105.036Z" fill="#02000A"/>
<path d="M179.408 41.7903L127.566 41.8005C122.862 41.8005 118.967 45.321 118.362 49.8679C118.27 50.5145 118.301 51.192 118.383 51.8386V51.931C118.711 54.3019 120.084 56.406 122.124 57.6479L114.529 59.8033C105.571 62.3385 97.2378 66.7006 90.0323 72.6023L19.9972 129.936C18.7673 130.942 18.0498 132.461 18.0498 134.052V168.446C18.0498 169.842 19.1978 170.991 20.5917 170.991H62.5328C63.855 170.991 64.9209 169.975 65.0644 168.662C66.2226 157.997 75.2525 149.684 86.2092 149.684C97.166 149.684 106.196 157.987 107.354 168.662C107.498 169.975 108.563 170.991 109.886 170.991H119.797C120.781 170.991 121.683 170.417 122.103 169.534L161.369 86.3866C164.762 79.202 169.599 72.8076 175.585 67.5833L180.638 63.1699C181.468 62.4411 181.95 61.3942 181.95 60.2857V44.3357C181.95 42.9296 180.802 41.7903 179.408 41.7903ZM147.194 61.6816C143.801 61.6816 141.044 58.9206 141.044 55.5233C141.044 52.126 143.801 49.365 147.194 49.365C150.587 49.365 153.344 52.126 153.344 55.5233C153.344 58.9206 150.587 61.6816 147.194 61.6816Z" fill="#02000A"/>
</svg>
